<?xml version="1.0" standalone="no"?>
<!DOCTYPE svg PUBLIC "-//W3C//DTD SVG 20010904//EN"
 "http://www.w3.org/TR/2001/REC-SVG-20010904/DTD/svg10.dtd">
<svg version="1.0" xmlns="http://www.w3.org/2000/svg"
 width="512.000000pt" height="512.000000pt" viewBox="0 0 512.000000 512.000000"
 preserveAspectRatio="xMidYMid meet">

<g transform="translate(0.000000,512.000000) scale(0.100000,-0.100000)"
fill="#000000" stroke="none">
<path d="M0 3067 l0 -365 27 -34 c15 -18 107 -119 203 -223 96 -105 200 -219
232 -253 31 -34 60 -62 65 -62 4 0 31 -15 58 -33 87 -58 268 -156 391 -211
501 -224 1006 -267 1454 -124 72 23 260 108 260 117 -1 3 -22 19 -48 36 -212
134 -651 573 -1106 1105 -55 63 -111 126 -126 140 -26 24 -78 34 -706 144
-374 66 -685 121 -691 124 -10 3 -13 -73 -13 -361z"/>
<path d="M1805 3103 c33 -32 332 -243 480 -338 l90 -58 -64 72 c-109 123 -196
225 -218 256 -19 28 -30 32 -129 48 -60 11 -122 21 -139 24 -20 4 -27 2 -20
-4z"/>
<path d="M2660 2946 c14 -13 397 -300 508 -380 30 -22 57 -35 62 -30 16 17 88
300 78 309 -4 4 -635 115 -650 115 -8 0 -8 -5 2 -14z"/>
<path d="M13 1548 c4 -538 5 -578 25 -659 29 -122 75 -234 135 -333 169 -278
414 -453 742 -529 89 -21 111 -21 1575 -25 1001 -2 1521 0 1595 7 132 13 269
48 372 96 238 110 443 313 553 548 56 120 92 248 93 339 1 42 5 74 10 71 4 -2
7 34 7 81 0 72 -3 85 -18 90 -41 11 -742 129 -746 125 -2 -2 0 -29 6 -59 19
-105 -9 -372 -40 -369 -4 0 -27 27 -52 60 -128 170 -346 283 -512 264 -94 -10
-153 -32 -353 -130 -314 -154 -425 -184 -713 -192 -120 -4 -234 -1 -305 6
-555 60 -1072 309 -1480 714 -100 99 -227 237 -227 246 0 2 -7 11 -15 20 -40
43 -75 90 -75 100 0 6 -9 11 -20 11 -10 0 -134 20 -274 45 -141 25 -263 45
-272 45 -14 0 -15 -55 -11 -572z"/>
</g>
</svg>
